<svg xmlns="http://www.w3.org/2000/svg" direction="ltr" width="697.84" height="510.99" viewBox="-419.783378930391 -374.80760183052445 697.84 510.99" stroke-linecap="round" stroke-linejoin="round" style="background-color: rgb(249, 250, 251);"><defs><g>
					<pattern id="hash_pattern" width="8" height="8" patternUnits="userSpaceOnUse" strokelinecap="round" stroke="white">
						<line x1="0.66" y1="2" x2="2" y2="0.66"/>
						<line x1="3.33" y1="4.66" x2="4.66" y2="3.33"/>
						<line x1="6" y1="7.33" x2="7.33" y2="6"/>
					</pattern>
					<mask id="hash_mask">
						<rect x="-100%" y="-100%" width="200%" height="200%" fill="url(#hash_pattern)"/>
					</mask>
				</g><style/></defs><path d="M2.7251,1.8277 Q2.6754,3.6554 2.55,6.0926 T2.3332,11.7118 2.17,18.8959 2.04,27.762 1.96,38.3749 1.89,50.7709 1.84,64.9701 1.81,80.9836 1.78,98.8175 1.77,118.4754 1.75,139.9592 1.74,163.2699 1.74,188.4081 1.73,215.3741 1.73,244.1682 1.72,274.7904 1.72,310.2793 1.68,330.2756 1.50,330.798 1.17,331.2368 0.71,331.5462 0.18,331.6936 -0.3663,331.6638 -0.8784,331.4597 -1.2985,331.1028 -1.5827,330.6304 -1.7011,330.0921 -1.6415,329.5441 -1.41,329.0438 -1.0308,328.6436 -0.5437,328.3855 0.00,328.2964 0.54,328.3857 1.03,328.6439 1.41,329.0442 1.64,329.5445 1.70,330.0926 1.58,330.6309 1.29,331.1032 0.87,331.46 0.36,331.6639 -0.1846,331.6936 -0.7157,331.546 -1.1719,331.2365 -1.5054,330.7976 -1.6813,330.2751 -1.7264,329.9997 -1.7272,310.2793 -1.7291,274.7904 -1.7318,244.1682 -1.7354,215.3741 -1.7405,188.4081 -1.7475,163.2699 -1.7571,139.9592 -1.7704,118.4754 -1.7886,98.8175 -1.8137,80.9836 -1.8483,64.9701 -1.8957,50.7709 -1.9606,38.3749 -2.0494,27.762 -2.1701,18.8959 -2.3332,11.7118 -2.5511,6.0926 -2.7251,1.8277 -2.6692,-0.531 -2.2628,-1.512 -1.5119,-2.2629 -0.5308,-2.6692 0.53,-2.6692 1.51,-2.2627 2.26,-1.5118 2.66,-0.5307 2.77,0.0001 2.72,1.8277 Z" fill="#1d1d1d" stroke-linecap="round" transform="matrix(1, 0, 0, 1, -237.456, -315.1459)" opacity="1"/><path d="M2.7312,-2.702 Q5.4623,-2.5576 8.51,-2.4476 T15.1449,-2.2555 22.92,-2.1125 32.02,-2.007 42.54,-1.9296 54.54,-1.873 68.03,-1.8317 83.03,-1.8017 99.57,-1.7799 117.63,-1.764 137.23,-1.7525 158.36,-1.7441 181.03,-1.7381 205.23,-1.7337 230.97,-1.7305 258.25,-1.7282 287.06,-1.7265 317.41,-1.7253 352.43,-1.7244 372.16,-1.6789 372.68,-1.5031 373.12,-1.17 373.43,-0.7143 373.58,-0.1839 373.55,0.3658 373.34,0.8772 372.99,1.2968 372.51,1.5805 371.98,1.6988 371.43,1.6393 370.93,1.408 370.53,1.0294 370.27,0.543 370.18,-0.0003 370.27,-0.5435 370.53,-1.0298 370.93,-1.4083 371.43,-1.6394 371.98,-1.6988 372.52,-1.5804 372.99,-1.2964 373.34,-0.8768 373.55,-0.3653 373.58,0.1844 373.43,0.7148 373.12,1.1703 372.68,1.5034 372.16,1.679 371.88,1.724 352.43,1.7244 317.41,1.7253 287.06,1.7265 258.25,1.7282 230.97,1.7305 205.23,1.7337 181.03,1.7381 158.36,1.7441 137.23,1.7525 117.63,1.764 99.57,1.7799 83.03,1.8017 68.03,1.8317 54.54,1.873 42.54,1.9296 32.02,2.007 22.92,2.1125 15.14,2.2555 8.51,2.4476 2.73,2.702 -0.5447,2.7381 -1.5511,2.3212 -2.3213,1.5509 -2.7381,0.5445 -2.7381,-0.5448 -2.3211,-1.5512 -1.5508,-2.3214 -0.5444,-2.7381 0.00,-2.8464 2.73,-2.702 Z" fill="#1d1d1d" stroke-linecap="round" transform="matrix(1, 0, 0, 1, -237.456, 11.55)" opacity="1"/><path d="M0.5013,2.9681 Q0.0677,3.1311 -0.0207,3.4365 T-0.4105,3.9617 -1.057,4.3226 -1.7711,4.5184 -2.5113,4.5375 -3.2346,4.3789 -3.8989,4.0519 -4.4656,3.5753 -4.9018,2.977 -5.1821,2.2917 -5.2903,1.5592 -5.2201,0.8221 -4.9754,0.1233 -4.5707,-0.4968 -2.7251,-1.5646 2.29,-2.3467 8.62,-1.9901 15.15,-1.0705 22.94,0.3295 31.59,2.3118 41.00,4.7586 51.22,7.9679 61.90,12.0929 72.60,16.7029 83.00,21.5843 92.71,26.2713 102.25,31.2025 111.56,36.6091 120.37,42.2628 129.08,48.3895 137.42,54.9539 145.67,61.8953 154.34,69.1902 163.44,76.8673 172.47,84.7751 180.83,92.8362 188.63,101.128 195.76,109.1978 202.85,117.4639 209.76,125.861 215.77,133.6813 221.09,141.0036 225.69,147.5392 229.76,153.8525 233.52,160.3606 237.39,166.8864 241.48,173.2654 245.43,179.481 248.97,185.4418 252.06,190.5208 254.78,195.1943 257.16,199.8361 259.43,204.16 261.85,208.7024 264.05,213.2712 265.94,217.6479 267.66,221.8907 269.42,226.0057 271.09,230.1547 272.69,234.066 274.27,237.8837 275.67,241.8977 276.94,245.9444 278.18,249.6097 279.27,253.0184 280.55,257.2527 282.21,262.0962 283.48,266.3093 284.37,269.5985 285.52,272.5745 286.56,275.7277 287.32,278.677 288.15,281.5596 288.86,283.7967 289.33,284.9049 289.48,285.745 289.43,286.5971 289.17,287.4115 288.73,288.141 288.12,288.7432 287.39,289.183 286.57,289.4349 285.72,289.4843 284.88,289.3283 284.11,288.9759 283.43,288.4476 282.91,287.7742 282.07,286.0286 280.63,282.1705 279.71,279.1524 279.69,278.0745 280.01,277.0453 280.64,276.1725 281.52,275.5477 282.55,275.2361 283.63,275.2705 284.64,275.6472 285.48,276.3267 286.05,277.238 286.31,278.2856 286.21,279.3599 285.78,280.3483 285.06,281.1473 284.12,281.6734 283.06,281.8714 281.99,281.7207 281.03,281.2368 280.27,280.4707 279.79,279.5024 279.65,278.4333 279.86,277.3754 280.40,276.4394 281.20,275.7234 282.20,275.3023 283.27,275.2201 284.32,275.4856 285.22,276.0708 285.89,276.9146 286.16,277.391 286.70,278.7163 288.22,282.268 289.33,284.9049 289.48,285.745 289.43,286.5971 289.17,287.4115 288.73,288.141 288.12,288.7432 287.39,289.183 286.57,289.4349 285.72,289.4843 284.88,289.3283 284.11,288.9759 283.43,288.4476 282.91,287.7742 282.67,286.9777 281.89,284.3328 280.81,280.2543 280.39,276.9619 279.67,273.7789 278.78,270.5372 278.32,267.5109 277.48,263.481 276.21,258.3212 275.33,254.1431 274.46,250.8046 273.33,247.0614 272.12,243.1089 270.84,239.2445 269.35,235.4009 267.82,231.4499 266.21,227.367 264.44,223.1846 262.78,219.0121 260.94,214.7614 258.81,210.3211 256.38,205.7592 254.09,201.3991 251.81,196.93 249.12,192.3158 246.00,187.1975 242.52,181.324 238.59,175.1262 234.43,168.6415 230.54,162.0844 226.86,155.7154 222.87,149.5218 218.30,143.0252 213.03,135.7783 207.10,128.0466 200.23,119.7067 193.18,111.4781 186.12,103.4893 178.44,95.3155 170.20,87.3706 161.22,79.5075 152.12,71.8367 143.44,64.5449 135.27,57.6778 127.08,51.2346 118.49,45.2031 109.80,39.6435 100.64,34.3459 91.17,29.489 81.47,24.8612 71.15,20.0881 60.56,15.6158 50.09,11.6881 40.03,8.6975 30.72,6.5038 22.26,4.8684 14.67,3.908 8.34,3.5464 2.70,3.6218 -0.4105,3.9617 -1.057,4.3226 -1.7711,4.5184 -2.5113,4.5375 -3.2346,4.3789 -3.8989,4.0519 -4.4656,3.5753 -4.9018,2.977 -5.1821,2.2917 -5.2903,1.5592 -5.2201,0.8221 -4.9754,0.1233 -4.5707,-0.4968 -3.1855,-1.6278 -1.4877,-2.6393 -0.3627,-2.8772 0.76,-2.797 1.77,-2.2909 2.51,-1.436 2.87,-0.3625 2.79,0.7662 2.29,1.7782 1.43,2.5195 0.93,2.8051 0.50,2.9681 Z" fill="#1d1d1d" stroke-linecap="round" transform="matrix(1, 0, 0, 1, -231.5295, -277.3647)" opacity="1"/><path d="M-0.74,3.1004 Q-1.48,3.1206 -1.8534,3.0753 T-2.5786,2.8966 -3.2399,2.5495 -3.7989,2.0542 -4.2231,1.4396 -4.4879,0.7412 -4.5779,-0.0002 -4.4878,-0.7415 -4.2229,-1.4398 -3.7987,-2.0544 -3.2396,-2.5497 -2.5783,-2.8967 -1.8531,-3.0753 0.39,-2.3183 4.22,0.4005 7.47,3.4521 10.04,5.7677 12.97,8.0625 15.05,11.3727 14.36,15.0055 11.03,18.5164 7.66,21.8025 5.45,24.0259 4.35,25.0028 4.40,25.4487 4.40,26.409 4.10,27.3191 3.52,28.0838 2.72,28.623 1.80,28.8802 0.84,28.8285 -0.0492,28.4734 -0.7813,27.8519 -1.2766,27.0293 -1.4833,26.0915 -1.3798,25.1368 -0.9768,24.2652 -0.3166,23.5679 0.53,23.1179 1.47,22.9623 2.42,23.1174 3.27,23.567 3.93,24.2641 4.33,25.1355 4.44,26.0901 4.23,27.028 3.74,27.8509 3.01,28.4727 2.11,28.8282 1.15,28.8804 0.23,28.6236 -0.5607,28.0848 -1.1419,27.3204 -1.3697,26.8909 -1.4077,25.4856 0.41,21.6693 3.46,17.8219 5.84,15.1401 8.52,13.3201 8.80,11.959 6.34,10.1232 3.65,7.9697 0.36,4.9935 -1.8534,3.0753 -2.5786,2.8966 -3.2399,2.5495 -3.7989,2.0542 -4.2231,1.4396 -4.4879,0.7412 -4.5779,-0.0002 -4.4878,-0.7415 -4.2229,-1.4398 -3.7987,-2.0544 -3.2396,-2.5497 -2.5783,-2.8967 -1.8531,-3.0753 -0.7398,-3.1004 0.58,-2.9628 1.67,-2.5118 2.51,-1.6782 2.96,-0.5892 2.96,0.5895 2.51,1.6785 1.67,2.5119 0.58,2.9629 -0.0002,3.0801 -0.74,3.1004 Z" fill="#1d1d1d" stroke-linecap="round" transform="matrix(1, 0, 0, 1, 124.05, -1.0437)" opacity="1"/><path d="M-0.1753,-2.1883 Q0.8734,-3.1526 1.73,-4.2451 T3.5768,-6.9318 5.46,-10.0814 7.17,-13.2995 8.82,-16.2817 10.15,-19.0406 11.73,-21.3771 14.49,-21.3421 17.02,-19.3425 18.89,-17.0466 20.99,-14.625 22.99,-12.4552 24.64,-10.8076 24.93,-9.6145 24.34,-9.8942 24.27,-10.9677 24.55,-11.4653 24.97,-11.8482 25.49,-12.0763 26.06,-12.1258 26.61,-11.9915 27.09,-11.6874 27.45,-11.2453 27.65,-10.7116 27.67,-10.1422 27.51,-9.5966 27.18,-9.1319 26.72,-8.7969 26.17,-8.6266 25.60,-8.6389 25.07,-8.8324 24.62,-9.1868 24.31,-9.6652 24.17,-10.2173 24.21,-10.7855 24.44,-11.3101 24.81,-11.7363 25.31,-12.0195 25.87,-12.1299 26.43,-12.0561 26.94,-11.8058 27.35,-11.4051 27.61,-10.8961 27.69,-10.3319 27.68,-10.0436 27.52,-9.3281 26.86,-7.4889 24.78,-7.2083 22.55,-8.7799 20.94,-10.4795 18.82,-12.5936 16.46,-14.9413 14.02,-17.1046 12.28,-17.1785 11.04,-15.0761 9.49,-12.106 7.82,-8.7298 5.98,-5.3481 4.07,-2.2339 2.19,0.1731 0.94,1.4116 0.33,1.6651 -0.3313,1.6651 -0.9433,1.4116 -1.4117,0.9431 -1.6651,0.3311 -1.6651,-0.3313 -1.4115,-0.9433 -1.2239,-1.224 -0.1753,-2.1883 Z" fill="#1d1d1d" stroke-linecap="round" transform="matrix(1, 0, 0, 1, -247.8273, -298.1073)" opacity="1"/><path d="M0,0 Q0.3359,-2.0152 0.25,-2.7357 T-0.1941,-3.8496 -1.4495,-4.2878 -3.1449,-4.021 -4.5769,-3.0356 -5.359,-1.6578 -4.9442,-0.4016 -3.5398,0.2845 -1.9332,0.1554 -0.7199,-0.7548 -0.2252,-2.0916 -0.4589,-3.3277 -1.0903,-4.1729 -1.771,-4.2964 -2.3106,-3.6899 -2.4374,-2.5189 -2.1708,-1.2077 -1.5214,-0.4916 -0.6629,-0.7723 -0.0262,-1.7652 -0.0143,-2.9815 -0.6795,-3.9839 -1.7146,-4.1932 -2.6157,-3.4655 -2.9399,-2.3964 -2.6132,-1.6446 -1.763,-1.5699 -0.7949,-2.2008 -0.0982,-3.3873 -0.0536,-4.7093 -0.869,-5.5992 -2.1539,-5.9173 -3.3617,-5.5849 -4.0213,-4.7294 -3.7075,-3.7584 -2.5286,-3.0601 -1.213,-2.8468 -0.3266,-3.0661 -0.0104,-3.6919 -0.3416,-4.3719 -1.1941,-4.2371 -2.3363,-3.4111 L-2.96,-2.96 " stroke="#e03131" fill="none" stroke-linecap="round" stroke-width="2" stroke-dasharray="none" stroke-dashoffset="0" transform="matrix(1, 0, 0, 1, -162.6345, -35.1208)" opacity="1"/><path d="M0,0 Q0.3359,2.0152 0.42,3.9112 T0.9052,8.1884 1.66,12.8777 2.25,17.1202 2.40,19.9432 2.28,21.9009 L2.22,22.97 " stroke="#e03131" fill="none" stroke-linecap="round" stroke-width="2" stroke-dasharray="none" stroke-dashoffset="0" transform="matrix(1, 0, 0, 1, -154.4856, -45.4921)" opacity="1"/><path d="M0,0 Q2.0152,-2.3556 2.90,-3.3347 T4.6131,-5.0164 6.05,-6.2708 7.17,-6.9558 7.95,-7.1619 8.37,-7.1066 8.44,-6.5726 8.25,-5.6784 L8.15,-5.19 " stroke="#e03131" fill="none" stroke-linecap="round" stroke-width="2" stroke-dasharray="none" stroke-dashoffset="0" transform="matrix(1, 0, 0, 1, -155.2264, -38.8249)" opacity="1"/><path d="M0,0 Q2.0152,-2.3556 2.90,-3.3347 T4.4452,-5.0164 5.45,-6.1028 6.17,-6.3602 6.73,-5.8268 7.17,-4.9299 L7.41,-4.44 " stroke="#e03131" fill="none" stroke-linecap="round" stroke-width="2" stroke-dasharray="none" stroke-dashoffset="0" transform="matrix(1, 0, 0, 1, -152.2632, -29.9352)" opacity="1"/><path d="M0,0 Q1.6793,-1.6793 2.47,-2.3058 T3.8758,-3.4447 5.20,-4.5735 L5.93,-5.19 " stroke="#e03131" fill="none" stroke-linecap="round" stroke-width="2" stroke-dasharray="none" stroke-dashoffset="0" transform="matrix(1, 0, 0, 1, -150.0407, -20.3047)" opacity="1"/><path d="M0,0 Q1.0076,0.6717 1.61,0.6872 T2.5633,0.3753 3.07,-0.2988 3.02,-1.0029 2.15,-1.3874 0.67,-1.0935 -0.9756,-0.2613 -2.2121,0.8649 -2.7195,1.9837 -2.4928,2.7627 -1.6972,2.8523 -0.591,2.2294 0.18,1.2175 0.09,0.1611 -0.4498,-0.4158 -1.4212,-0.2271 -2.4555,0.5477 -2.8524,1.6426 -2.7333,2.5764 -2.1645,2.7505 -1.35,2.0059 -0.7373,0.7596 -0.5706,-0.2569 -0.9833,-0.6441 -1.8805,-0.1838 -2.5384,0.7393 -2.8111,1.697 L-2.96,2.22 " stroke="#e03131" fill="none" stroke-linecap="round" stroke-width="2" stroke-dasharray="none" stroke-dashoffset="0" transform="matrix(1, 0, 0, 1, -190.0443, -270.6975)" opacity="1"/><path d="M0,0 Q0.6717,-4.3708 0.85,-6.7421 T1.1388,-11.2481 1.29,-15.0525 1.37,-17.8018 1.42,-19.4713 1.61,-20.383 1.89,-20.713 2.04,-20.5573 2.45,-19.8006 3.69,-18.2117 5.71,-15.8304 8.16,-12.8482 10.51,-9.8762 12.13,-7.4111 12.84,-5.7267 12.89,-4.8068 12.42,-4.6426 11.57,-4.9967 L11.11,-5.19 " stroke="#e03131" fill="none" stroke-linecap="round" stroke-width="2" stroke-dasharray="none" stroke-dashoffset="0" transform="matrix(1, 0, 0, 1, -183.3771, -278.8463)" opacity="1"/><path d="M0,0 Q2.3556,-1.0076 3.50,-1.4507 T5.444,-2.1357 6.50,-2.3419 7.09,-2.2631 L7.41,-2.22 " stroke="#e03131" fill="none" stroke-linecap="round" stroke-width="2" stroke-dasharray="none" stroke-dashoffset="0" transform="matrix(1, 0, 0, 1, -182.6362, -286.2544)" opacity="1"/><path d="M-0.5038,0.8397 Q-1.0076,1.6793 -1.2827,2.476 T-1.3723,3.7078 -0.4136,4.0424 1.11,3.5511 2.28,2.6111 2.42,1.2581 1.49,-0.1526 -0.5305,-0.5871 -2.9812,0.1831 -4.8234,1.7816 -5.6615,4.0003 -5.2773,5.8838 -3.7217,6.7444 -1.5287,6.5427 0.17,5.2547 0.93,3.5415 0.84,2.27 -0.0418,1.9114 -1.1984,2.3873 -1.9979,3.3213 -2.0987,4.1694 -1.3141,4.2945 -0.0459,3.3529 1.31,1.6632 2.23,0.0686 2.22,-0.8022 1.38,-0.606 0.25,0.3408 -0.3662,1.3616 -0.2,2.0871 0.40,2.6517 0.37,1.48 -0.5038,0.8397 Z" stroke="#e03131" fill="none" stroke-linecap="round" stroke-width="2" stroke-dasharray="none" stroke-dashoffset="0" transform="matrix(1, 0, 0, 1, 9.97, -258.8445)" opacity="1"/><path d="M0,0 Q0.3359,2.3556 0.76,4.3423 T1.5925,8.7597 2.54,13.1897 3.40,16.6166 3.87,18.656 3.79,18.9302 3.24,17.0624 2.61,13.015 1.93,7.9475 1.55,3.3327 2.02,-0.3653 3.62,-3.0589 6.01,-4.6979 8.49,-5.2571 10.35,-4.7206 10.86,-3.2498 9.96,-0.7672 8.30,1.9344 6.72,3.9158 6.02,5.3338 6.65,6.4441 8.50,7.5542 11.03,9.0002 13.25,10.7997 14.46,12.7923 14.29,15.2241 12.84,17.7276 10.37,19.4307 7.51,20.025 5.44,19.8457 4.82,19.5799 5.06,19.373 L5.19,19.26 " stroke="#e03131" fill="none" stroke-linecap="round" stroke-width="2" stroke-dasharray="none" stroke-dashoffset="0" transform="matrix(1, 0, 0, 1, 29.97, -272.9199)" opacity="1"/><path d="M0.5038,0.1679 Q1.0076,0.3359 1.45,0.2596 T2.1357,-0.0261 2.50,-0.686 2.37,-1.7181 1.63,-2.6176 0.55,-2.941 -0.5355,-2.6137 -0.9642,-1.5954 -0.3586,-0.3675 0.81,0.4711 2.29,0.5931 3.60,-0.0119 3.98,-1.1821 3.35,-2.3249 1.99,-2.7811 0.42,-2.3585 -0.7782,-1.1201 -0.9288,0.3959 0.16,1.5597 1.93,1.8594 3.75,1.3513 4.90,0.0663 4.86,-1.6432 3.83,-2.9126 2.26,-3.27 0.73,-2.7934 0.06,-1.8614 0.02,-0.6575 0,0 0.50,0.1679 Z" stroke="#e03131" fill="none" stroke-linecap="round" stroke-width="2" stroke-dasharray="none" stroke-dashoffset="0" transform="matrix(1, 0, 0, 1, 24.78, -75.1244)" opacity="1"/><path d="M0,0 Q-1.6793,-1.3435 -2.8119,-1.3745 T-5.4027,-0.7506 -8.161,1.4396 -10.0033,5.157 -10.3377,9.3726 -8.6707,13.1885 -5.2391,15.9442 -1.1796,16.9454 2.38,16.6524 4.83,15.8207 6.97,14.6949 L8.15,14.08 " stroke="#e03131" fill="none" stroke-linecap="round" stroke-width="2" stroke-dasharray="none" stroke-dashoffset="0" transform="matrix(1, 0, 0, 1, 51.45, -91.4222)" opacity="1"/><path d="M-0.3359,1.1778 Q-0.6717,2.3556 -0.5193,3.1668 T0.2202,4.4209 1.46,4.7677 2.64,4.2831 3.29,3.3467 2.97,1.9957 1.95,0.5861 0.73,-0.1837 -0.4385,0.0676 -1.2471,1.5506 -1.1849,3.5383 -0.1433,5.2956 1.60,6.2553 3.23,5.9374 4.12,4.754 4.09,3.1001 3.41,1.5251 2.53,0.665 1.55,0.5311 1.01,1.1297 1.39,2.1284 2.61,2.8417 3.94,3.0633 5.01,2.5126 5.59,1.5401 5.41,0.6732 4.63,0.1997 3.70,0.1091 3.03,0.2275 2.83,0.628 2.91,1.1791 1.48,0.74 -0.3359,1.1778 Z" stroke="#e03131" fill="none" stroke-linecap="round" stroke-width="2" stroke-dasharray="none" stroke-dashoffset="0" transform="matrix(1, 0, 0, 1, -79.6641, -137.3522)" opacity="1"/><path d="M0,0 Q-0.3359,0.3359 0.07,1.2672 T1.2172,3.7172 3.01,7.2428 5.01,11.1857 6.43,14.5146 7.04,16.1646 6.70,15.2162 5.34,11.6709 3.42,6.8776 2.03,2.4125 1.78,-1.0358 2.65,-3.593 4.47,-5.3255 6.98,-5.7678 9.86,-4.4957 12.45,-1.6155 14.02,2.3107 14.21,6.4724 13.31,10.091 11.80,12.7412 10.31,14.3564 9.66,14.9027 9.64,14.8492 L9.63,14.82 " stroke="#e03131" fill="none" stroke-linecap="round" stroke-width="2" stroke-dasharray="none" stroke-dashoffset="0" transform="matrix(1, 0, 0, 1, -68.552, -144.7603)" opacity="1"/><path d="M0,0 Q-1.171,-0.876 -2.0763,-0.8224 T-4.2815,0.1364 -6.5842,2.4142 -8.0597,5.4147 -8.4252,8.5919 -7.6739,11.2054 -5.9474,12.4851 -3.5408,12.0879 -1.0555,10.0419 0.81,6.9479 1.90,4.0145 2.42,1.9746 2.71,0.9331 3.23,1.608 4.18,4.3185 5.43,9.0191 6.62,15.7573 7.20,23.5334 6.71,31.1456 5.13,37.7197 2.72,42.6285 -0.2634,45.4546 -3.5093,45.9722 -6.3078,44.3531 -8.1288,41.5672 -8.5378,38.1417 -7.5176,34.4418 -5.7858,30.5212 L-4.84,28.38 " stroke="#1d1d1d" fill="none" stroke-linecap="round" stroke-width="2" stroke-dasharray="none" stroke-dashoffset="0" transform="matrix(1, 0, 0, 1, -377.4634, -321.8425)" opacity="1"/><path d="M0,0 Q-1.7565,0 -2.4563,0.6581 T-3.5382,2.8467 -3.9089,5.871 -3.2331,8.6936 -1.4003,10.8207 1.21,11.6169 3.88,10.8081 5.63,8.5373 5.85,5.1027 4.59,1.3979 2.28,-1.2109 -0.2148,-2.1251 -2.0917,-1.7461 -2.9714,-0.4407 -3.3456,1.513 L-3.55,2.58 " stroke="#1d1d1d" fill="none" stroke-linecap="round" stroke-width="2" stroke-dasharray="none" stroke-dashoffset="0" transform="matrix(1, 0, 0, 1, -362.9519, -317.3278)" opacity="1"/><path d="M0,0 Q-2.342,-0.7307 -3.567,-0.3448 T-5.7538,1.0553 -7.2408,3.3563 -7.4674,6.1516 -6.4927,8.7016 -4.6419,10.1669 -2.0948,10.2364 0.31,8.8106 1.78,5.9827 1.85,2.4617 0.49,-0.5596 -1.8502,-2.1347 -4.3033,-2.0418 -6.0084,-0.9676 -7.3353,0.4926 L-8.06,1.29 " stroke="#1d1d1d" fill="none" stroke-linecap="round" stroke-width="2" stroke-dasharray="none" stroke-dashoffset="0" transform="matrix(1, 0, 0, 1, -343.9257, -317.0053)" opacity="1"/><path d="M0,0 Q-1.9017,-0.5855 -3.154,-0.5252 T-5.4556,0.0059 -7.4433,1.7597 -8.8216,4.4014 -9.1363,7.2329 -8.3573,9.8777 -6.686,11.6148 -4.3821,11.9031 -1.8803,10.3789 0.29,6.4738 1.69,0.0225 2.16,-7.3064 1.99,-13.3582 1.6,-17.4689 1.23,-19.5663 0.89,-19.4658 0.63,-16.8511 0.41,-11.765 0.37,-5.3268 0.93,0.9693 2.11,6.1642 3.71,9.9544 5.61,12.1696 7.45,12.9391 9.30,13.1208 L10.32,13.22 " stroke="#1d1d1d" fill="none" stroke-linecap="round" stroke-width="2" stroke-dasharray="none" stroke-dashoffset="0" transform="matrix(1, 0, 0, 1, -327.1569, -319.9076)" opacity="1"/><path d="M0,0 Q-0.2905,-1.4615 -1.3229,-1.7879 T-2.9192,-2.2927 -5.1073,-2.0554 -8.9369,-0.4621 -13.0777,2.3824 -16.2899,6.7158 -17.7514,11.6445 -16.7931,15.8 -13.4898,18.5822 -8.613,19.2235 -3.2423,17.5244 1.22,13.7416 3.81,8.8935 4.64,4.2715 4.58,0.7964 4.55,-0.8813 5.04,-0.4813 6.34,2.8825 8.07,9.0382 9.67,17.1566 10.77,26.4194 10.85,35.2839 9.51,43.1273 6.65,49.6076 2.61,54.4629 -2.38,57.3323 -7.8855,57.5832 -12.8688,55.0128 -16.1758,50.8268 -16.8109,46.0535 -15.1085,41.4723 -12.4253,36.9692 L-10.96,34.51 " stroke="#1d1d1d" fill="none" stroke-linecap="round" stroke-width="2" stroke-dasharray="none" stroke-dashoffset="0" transform="matrix(1, 0, 0, 1, 132.92, 42.91)" opacity="1"/><path d="M0,0 Q-3.0727,0.5855 -4.2772,1.551 T-6.2868,4.6528 -7.1665,8.9066 -6.4759,12.9862 -4.2697,16.1673 -1.0155,17.6845 2.37,17.1945 4.88,14.585 5.73,10.2323 4.52,5.368 1.73,1.688 -1.9062,0.1185 -5.1395,0.3575 -6.8304,1.6567 -7.8327,3.5022 L-8.38,4.51 " stroke="#1d1d1d" fill="none" stroke-linecap="round" stroke-width="2" stroke-dasharray="none" stroke-dashoffset="0" transform="matrix(1, 0, 0, 1, 159.68, 43.56)" opacity="1"/><path d="M0,0 Q-3.0727,-1.4615 -4.9375,-1.3499 T-8.4789,-0.0791 -11.1436,3.1044 -12.3788,7.185 -11.7371,11.3879 -9.41,14.9268 -6.1625,16.9344 -2.6348,17.1525 0.24,15.1475 1.59,11.125 0.94,6.2958 -1.4574,2.2696 -4.6016,-0.0768 -7.3446,-0.5548 -9.8964,0.011 L-11.29,0.32 " stroke="#1d1d1d" fill="none" stroke-linecap="round" stroke-width="2" stroke-dasharray="none" stroke-dashoffset="0" transform="matrix(1, 0, 0, 1, 186.45, 42.91)" opacity="1"/><path d="M0,0 Q-2.7823,-0.5855 -4.3453,-0.0146 T-7.1297,2.039 -9.018,5.5774 -9.5363,9.634 -8.6484,13.093 -6.407,15.1272 -3.3538,15.5052 -0.3701,14.1026 2.13,10.4092 3.72,4.0735 4.00,-4.1433 3.06,-12.2162 1.59,-18.4542 0.28,-22.3738 -0.721,-23.416 -1.3446,-20.6923 -1.2449,-14.6683 -0.167,-6.9146 2.10,0.9804 5.31,7.4888 9.34,11.7739 13.37,14.0415 17.23,15.5993 L19.35,16.45 " stroke="#1d1d1d" fill="none" stroke-linecap="round" stroke-width="2" stroke-dasharray="none" stroke-dashoffset="0" transform="matrix(1, 0, 0, 1, 201.93, 43.23)" opacity="1"/><path d="M0,0 Q2.2512,2.5372 3.43,4.2149 T5.5365,7.5123 7.24,10.5795 8.60,12.8173 9.48,13.4767 10.17,13.1878 L10.55,13.03 " stroke="#1d1d1d" fill="none" stroke-linecap="round" stroke-width="2" stroke-dasharray="none" stroke-dashoffset="0" transform="matrix(1, 0, 0, 1, -300.6788, -335.4251)" opacity="1"/><path d="M0,0 Q-0.2814,1.6884 -0.921,3.9808 T-2.3321,9.3566 -3.6678,15.5331 -4.3973,20.8784 -4.7612,25.8402 L-4.96,28.55 " stroke="#1d1d1d" fill="none" stroke-linecap="round" stroke-width="2" stroke-dasharray="none" stroke-dashoffset="0" transform="matrix(1, 0, 0, 1, -287.6462, -331.7016)" opacity="1"/><path d="M0,0 Q-0.8442,3.9442 -1.4968,6.7119 T-3.0709,13.3852 -4.9178,20.9717 -6.4892,27.7904 -7.4881,33.2049 -8.315,36.7248 -9.1887,38.0842 -10.0692,38.3402 L-10.55,38.48 " stroke="#1d1d1d" fill="none" stroke-linecap="round" stroke-width="2" stroke-dasharray="none" stroke-dashoffset="0" transform="matrix(1, 0, 0, 1, 239.23, 15.83)" opacity="1"/><path d="M0,0 Q1.9698,3.3814 3.49,5.7117 T6.697,10.4426 9.99,15.2797 13.20,20.1749 16.08,24.8203 18.36,28.6237 19.74,31.2636 19.93,32.2832 19.48,32.2746 L19.24,32.27 " stroke="#1d1d1d" fill="none" stroke-linecap="round" stroke-width="2" stroke-dasharray="none" stroke-dashoffset="0" transform="matrix(1, 0, 0, 1, 224.34, 15.83)" opacity="1"/></svg>