<svg xmlns="http://www.w3.org/2000/svg" direction="ltr" width="488.2639476895471" height="248.91828088814907" viewBox="-414.35261201824335 464.1529697761324 488.2639476895471 248.91828088814907" stroke-linecap="round" stroke-linejoin="round" style="background-color: transparent;" encoding="UTF-8&quot;"><defs><g>
					<pattern id="hash_pattern" width="8" height="8" patternUnits="userSpaceOnUse" strokelinecap="round" stroke="white">
						<line x1="0.6666666666666666" y1="2" x2="2" y2="0.6666666666666666"/>
						<line x1="3.333333333333333" y1="4.666666666666666" x2="4.666666666666666" y2="3.333333333333333"/>
						<line x1="6" y1="7.333333333333333" x2="7.333333333333333" y2="6"/>
					</pattern>
					<mask id="hash_mask">
						<rect x="-100%" y="-100%" width="200%" height="200%" fill="url(#hash_pattern)"/>
					</mask>
				</g><style/></defs><path d="M0.29,-0.87 Q-0.1049,0.242 -0.1469,0.8747 T-0.2118,1.8529 -0.2473,2.9246 -0.2667,5.6595 -0.2773,11.4525 -0.283,21.0651 -0.2862,34.9135 -0.2879,53.2248 -0.2889,76.123 -0.2894,103.676 -0.2898,136.6061 L-0.29,154.59 " stroke=" #1d1d1d" fill="none" stroke-linecap="round" stroke-width="2" stroke-dasharray="none" stroke-dashoffset="0" transform="matrix(1, 0, 0, 1, -362.8287, 507.9818)" opacity="1"/><path d="M0.29,0 Q1.0797,0.7171 1.7127,0.9129 T3.9433,1.2157 8.5,1.381 15.9963,1.4713 26.7673,1.5207 40.9959,1.5476 58.7821,1.5623 80.1804,1.5703 105.2206,1.5747 133.919,1.5771 167.5521,1.579 L185.92,1.58 " stroke=" #1d1d1d" fill="none" stroke-linecap="round" stroke-width="2" stroke-dasharray="none" stroke-dashoffset="0" transform="matrix(1, 0, 0, 1, -370.9306, 654.9726)" opacity="1"/><path d="M1.4538,0.0521 Q1.4754,0.4104 1.3281,0.7378 T0.8981,1.2865 0.2624,1.5726 -0.4334,1.5304 -1.0299,1.1697 -1.3905,0.5731 -1.4325,-0.1227 -1.1463,-0.7584 -0.5975,-1.1882 0.0882,-1.3137 0.7537,-1.1062 1.2465,-0.6133 1.4538,0.0521 Z" fill=" #1d1d1d" stroke-linecap="round" transform="matrix(1, 0, 0, 1, -368.5698, 514.7285)" opacity="1"/><path d="M-0.43,0.21 Q1.4082,1.3946 2.271,2.0131 T3.7683,3.1328 4.8153,4.1051 5.4211,4.9969 5.5545,5.9446 5.2007,7.1521 4.5808,8.4992 3.945,9.7273 3.3686,10.7611 2.7928,11.6547 2.1119,12.583 L1.74,13.09 " stroke=" #1d1d1d" fill="none" stroke-linecap="round" stroke-width="2" stroke-dasharray="none" stroke-dashoffset="0" transform="matrix(1, 0, 0, 1, -187.8696, 650.8685)" opacity="1"/><path d="M0,0.14 Q1.7066,-2.3245 2.5334,-3.49 T4.1408,-5.7843 5.5112,-7.7908 6.5228,-9.3132 7.2409,-10.4396 7.7965,-11.284 8.2951,-11.9108 8.7648,-12.3507 9.187,-12.5909 9.5492,-12.6246 9.9444,-12.3138 10.4871,-11.3885 11.2759,-9.7007 12.2649,-7.4333 13.2975,-5.0785 14.4197,-2.9391 15.7587,-0.7148 L16.49,0.5 " stroke=" #1d1d1d" fill="none" stroke-linecap="round" stroke-width="2" stroke-dasharray="none" stroke-dashoffset="0" transform="matrix(1, 0, 0, 1, -369.5825, 514.0051)" opacity="1"/><path d="M-0.14,0.07 Q2.0716,-2.2778 4.1827,-4.426 T9.5565,-9.8573 17.3139,-17.6462 27.5788,-27.9282 40.4188,-40.7775 55.8708,-56.2346 73.9548,-74.3215 94.6821,-95.0502 118.9737,-119.3431 L132.24,-132.61 " stroke=" #1d1d1d" fill="none" stroke-linecap="round" stroke-width="2" stroke-dasharray="none" stroke-dashoffset="0" transform="matrix(1, 0, 0, 1, -346.145, 639.8732)" opacity="1"/><path d="M-0.14,-0.51 Q-3.1628,0.3433 -4.4149,1.0029 T-6.3847,2.3836 -7.1973,3.7277 -6.5245,4.9542 -4.8114,6.0847 -2.9884,7.1288 -1.7637,8.1914 -1.7507,9.2982 -3.0235,10.3634 -5.1642,11.2401 -7.2864,11.7189 -9.3132,11.9524 L-10.42,12.08 " stroke=" #1d1d1d" fill="none" stroke-linecap="round" stroke-width="2" stroke-dasharray="none" stroke-dashoffset="0" transform="matrix(1, 0, 0, 1, -208.5582, 514.4391)" opacity="1"/><path d="M-0.29,-0.8 Q0.6314,2.8128 1.1122,4.6186 T2.0189,7.9371 2.7116,10.5051 3.0581,12.0709 3.0158,12.5652 2.5661,11.7845 1.8281,9.4858 1.0642,6.1631 0.5176,2.7735 0.2827,-0.0966 0.4494,-2.2223 1.0329,-3.3832 1.9098,-3.3613 2.8177,-2.2328 3.411,-0.466 3.5036,1.6155 3.1275,3.7689 2.4297,5.535 1.5115,7.1422 L1.01,8.02 " stroke=" #1d1d1d" fill="none" stroke-linecap="round" stroke-width="2" stroke-dasharray="none" stroke-dashoffset="0" transform="matrix(1, 0, 0, 1, -380.5779, 532.6683)" opacity="1"/><path d="M0.3057,1.09 Q0.4713,2.32 0.6707,3.8 T0.505,2.57 0.3057,1.09 Z" stroke=" #1d1d1d" fill="none" stroke-linecap="round" stroke-width="2" stroke-dasharray="none" stroke-dashoffset="0" transform="matrix(1, 0, 0, 1, -371.608, 542.0722)" opacity="1"/><path d="M0,-0.22 Q5.7294,-0.0248 10.9968,0.0285 T24.3248,0.1109 43.4527,0.1559 68.7104,0.1804 99.9754,0.1996 L117.05,0.21 " stroke=" #1d1d1d" fill="none" stroke-linecap="round" stroke-width="2" stroke-dasharray="4 4" stroke-dashoffset="0" transform="matrix(1, 0, 0, 1, -362.4934, 538.0213)" opacity="1"/><path d="M-0.14,0.07 Q-0.14,1.1185 -0.1082,1.6362 T-0.0909,2.6319 -0.1472,3.6682 -0.2438,4.8264 -0.3283,5.7539 -0.3745,6.9714 -0.3997,10.4801 -0.4134,18.0839 -0.421,30.7678 -0.4251,49.0699 -0.4273,73.2841 -0.429,103.2725 L-0.43,119.65 " stroke=" #1d1d1d" fill="none" stroke-linecap="round" stroke-width="2" stroke-dasharray="4 4" stroke-dashoffset="0" transform="matrix(1, 0, 0, 1, -245.3059, 537.2979)" opacity="1"/><path d="M-1.0614,0.3042 Q-1.9827,0.8285 -2.6153,1.673 T-3.5932,3.6369 -3.8981,5.9258 -3.5722,7.9951 -2.5727,9.5178 -1.0101,10.3494 0.7941,10.3111 2.6327,9.4051 4.0975,7.7938 4.7658,5.6974 4.4727,3.436 3.3935,1.4794 1.8533,0.1498 0.2587,-0.3471 -1.4027,-0.3619 -1.225,-0.295 -1.0614,0.3042 Z" stroke=" #1d1d1d" fill="none" stroke-linecap="round" stroke-width="2" stroke-dasharray="none" stroke-dashoffset="0" transform="matrix(1, 0, 0, 1, -249.6341, 660.2317)" opacity="1"/><path d="M-0.29,0.14 Q1.6163,1.8783 2.4318,2.5845 T3.922,3.7421 5.4083,4.7368 L6.22,5.28 " stroke=" #1d1d1d" fill="none" stroke-linecap="round" stroke-width="2" stroke-dasharray="none" stroke-dashoffset="0" transform="matrix(1, 0, 0, 1, -249.6341, 666.5975)" opacity="1"/><path d="M0,0.21 Q0.2632,2.2479 0.4009,3.2628 T0.7043,5.4988 L0.87,6.72 " stroke=" #1d1d1d" fill="none" stroke-linecap="round" stroke-width="2" stroke-dasharray="none" stroke-dashoffset="0" transform="matrix(1, 0, 0, 1, -239.3621, 669.057)" opacity="1"/><path d="M0,0 Q3.1655,-3.1655 6.0083,-6.0083 T13.1735,-13.1735 23.4175,-23.4175 36.9258,-36.9258 53.7995,-53.7995 74.0938,-74.0938 98.3455,-98.3455 L111.59,-111.59 " stroke=" #1d1d1d" fill="none" stroke-linecap="round" stroke-width="2" stroke-dasharray="none" stroke-dashoffset="0" transform="matrix(1, 0, 0, 1, -349.2987, 609.238)" opacity="1"/><path d="M0.29,-0.51 Q-2.4015,0.7382 -3.4973,1.4398 T-5.3571,2.8537 -6.4386,4.1501 -6.6344,5.1531 -6.0515,5.7667 -4.9116,6.1018 -3.5356,6.4164 -2.3575,6.8833 -1.6801,7.5989 -1.5734,8.4504 -2.1392,9.3739 -3.2039,10.205 -4.4752,10.6589 -5.9788,10.9183 L-6.8,11.06 " stroke=" #1d1d1d" fill="none" stroke-linecap="round" stroke-width="2" stroke-dasharray="none" stroke-dashoffset="0" transform="matrix(1, 0, 0, 1, -235.294, 503.6246)" opacity="1"/><path d="M0.14,-0.14 Q1.5879,-0.376 1.9832,-0.3406 T2.3971,0.075 2.1306,1.0236 1.3951,2.2973 0.4669,3.6488 -0.3373,4.7795 -0.8083,5.6285 -0.8999,6.192 -0.5572,6.4339 0.3515,6.5002 1.7152,6.5518 L2.46,6.58 " stroke=" #1d1d1d" fill="none" stroke-linecap="round" stroke-width="2" stroke-dasharray="none" stroke-dashoffset="0" transform="matrix(1, 0, 0, 1, -234.7153, 513.6072)" opacity="1"/><path d="M-0.14,-0.08 Q-0.14,1.1046 -0.14,1.6255 T-0.14,2.6601 -0.14,3.6836 -0.14,4.7667 -0.14,6.0141 -0.14,7.3852 -0.1082,8.7581 -0.0591,10.0003 -0.0005,11.1054 0.0633,12.2013 0.0981,13.0631 0.1171,14.4729 0.1275,18.9994 0.1332,28.9848 0.1363,45.7079 0.138,69.8673 0.1393,100.7139 L0.14,117.56 " stroke=" #1d1d1d" fill="none" stroke-linecap="round" stroke-width="2" stroke-dasharray="4 4" stroke-dashoffset="0" transform="matrix(1, 0, 0, 1, -278.1181, 538.3468)" opacity="1"/><path d="M-1.1249,0.2775 Q-2.1098,1.0649 -2.7135,2.2507 T-3.4835,4.8715 -3.4456,7.551 -2.6034,9.7359 -1.0927,11.1244 0.6514,11.4242 2.2938,10.5713 3.5175,8.7257 3.9226,6.3062 3.4562,3.8684 2.38,1.9129 1.0365,0.7474 -0.2214,0.4059 -1.4817,0.4668 -1.155,-0.005 -1.1249,0.2775 Z" stroke=" #1d1d1d" fill="none" stroke-linecap="round" stroke-width="2" stroke-dasharray="none" stroke-dashoffset="0" transform="matrix(1, 0, 0, 1, -280.4329, 661.9)" opacity="1"/><path d="M0.4975,0.8798 Q1.2849,1.6196 2.2325,2.5098 T1.445,1.77 0.4975,0.8798 Z" stroke=" #1d1d1d" fill="none" stroke-linecap="round" stroke-width="2" stroke-dasharray="none" stroke-dashoffset="0" transform="matrix(1, 0, 0, 1, -278.9862, 671.304)" opacity="1"/><path d="M0.29,-0.51 Q1.5382,-0.7052 1.8449,-0.4317 T2.1559,0.4836 1.9648,2.0025 1.4657,3.751 0.898,5.3301 0.4587,6.5532 0.2845,7.4164 0.4844,7.9218 1.052,8.0345 2.0837,7.8985 3.543,7.699 L4.34,7.59 " stroke=" #1d1d1d" fill="none" stroke-linecap="round" stroke-width="2" stroke-dasharray="none" stroke-dashoffset="0" transform="matrix(1, 0, 0, 1, -272.4758, 671.5933)" opacity="1"/><path d="M0.43,-0.14 Q-1.1449,-0.1128 -2.2967,0.0263 T-4.7014,0.407 -7.2947,0.9439 -9.7934,1.5322 -12.346,2.1775 L-13.74,2.53 " stroke=" #1d1d1d" fill="none" stroke-linecap="round" stroke-width="2" stroke-dasharray="none" stroke-dashoffset="0" transform="matrix(1, 0, 0, 1, -296.6366, 582.1836)" opacity="1"/><path d="M0.14,0.07 Q-2.2882,1.7085 -3.3439,2.4191 T-5.3709,3.8129 -7.0362,5.0666 -8.0773,6.1143 -8.4167,6.9498 -8.012,7.6012 -6.9377,8.1203 -5.5953,8.7329 -4.1301,9.5848 L-3.33,10.05 " stroke=" #1d1d1d" fill="none" stroke-linecap="round" stroke-width="2" stroke-dasharray="none" stroke-dashoffset="0" transform="matrix(1, 0, 0, 1, -307.7767, 579.7241)" opacity="1"/><path d="M-0.29,0 Q-3.3083,0.1634 -4.6589,0.2738 T-7.4031,0.5762 -10.4733,0.9991 L-12.15,1.23 " stroke=" #1d1d1d" fill="none" stroke-linecap="round" stroke-width="2" stroke-dasharray="none" stroke-dashoffset="0" transform="matrix(1, 0, 0, 1, -239.4896, 523.4452)" opacity="1"/><path d="M0.58,0.07 Q-2.2431,1.1865 -3.4406,1.7206 T-5.5236,2.8096 -6.8927,3.8651 -7.3431,4.8023 -6.8651,5.5751 -5.424,6.2264 -3.2288,6.9208 L-2.03,7.3 " stroke=" #1d1d1d" fill="none" stroke-linecap="round" stroke-width="2" stroke-dasharray="none" stroke-dashoffset="0" transform="matrix(1, 0, 0, 1, -248.7489, 521.1304)" opacity="1"/><path d="M0.58,0.07 Q-2.4428,0.7236 -4.0557,1.0019 T-7.2393,1.498 -10.2919,1.9006 -13.5569,2.3077 L-15.34,2.53 " stroke=" #1d1d1d" fill="none" stroke-linecap="round" stroke-width="2" stroke-dasharray="none" stroke-dashoffset="0" transform="matrix(1, 0, 0, 1, -253.8126, 647.7218)" opacity="1"/><path d="M0.43,0.07 Q-1.1449,1.6449 -2.0016,2.37 T-3.5554,3.7543 -4.5674,4.8712 -4.7274,5.6445 -3.9298,6.1667 -2.4434,6.5517 -0.7762,7.1228 1.0388,7.9877 L2.03,8.46 " stroke=" #1d1d1d" fill="none" stroke-linecap="round" stroke-width="2" stroke-dasharray="none" stroke-dashoffset="0" transform="matrix(1, 0, 0, 1, -266.9781, 645.1176)" opacity="1"/><path d="M0.29,-0.87 Q-0.1049,0.242 -0.1469,0.8747 T-0.2118,1.8529 -0.2473,2.9246 -0.2667,5.6595 -0.2773,11.4525 -0.283,21.0651 -0.2862,34.9135 -0.2879,53.2248 -0.2889,76.123 -0.2894,103.676 -0.2898,136.6061 L-0.29,154.59 " stroke=" #1d1d1d" fill="none" stroke-linecap="round" stroke-width="2" stroke-dasharray="none" stroke-dashoffset="0" transform="matrix(1, 0, 0, 1, -140.0277, 508.8318)" opacity="1"/><path d="M0.29,0 Q1.0797,0.7171 1.7127,0.9129 T3.9433,1.2157 8.5,1.381 15.9963,1.4713 26.7673,1.5207 40.9959,1.5476 58.7821,1.5623 80.1804,1.5703 105.2206,1.5747 133.919,1.5771 167.5521,1.579 L185.92,1.58 " stroke=" #1d1d1d" fill="none" stroke-linecap="round" stroke-width="2" stroke-dasharray="none" stroke-dashoffset="0" transform="matrix(1, 0, 0, 1, -148.1296, 655.8225)" opacity="1"/><path d="M1.4538,0.0521 Q1.4754,0.4104 1.3281,0.7378 T0.8981,1.2865 0.2624,1.5726 -0.4334,1.5304 -1.0299,1.1697 -1.3905,0.5731 -1.4325,-0.1227 -1.1463,-0.7584 -0.5975,-1.1882 0.0882,-1.3137 0.7537,-1.1062 1.2465,-0.6133 1.4538,0.0521 Z" fill=" #1d1d1d" stroke-linecap="round" transform="matrix(1, 0, 0, 1, -145.7689, 515.5785)" opacity="1"/><path d="M-0.43,0.21 Q1.4082,1.3946 2.271,2.0131 T3.7683,3.1328 4.8153,4.1051 5.4211,4.9969 5.5545,5.9446 5.2007,7.1521 4.5808,8.4992 3.945,9.7273 3.3686,10.7611 2.7928,11.6547 2.1119,12.583 L1.74,13.09 " stroke=" #1d1d1d" fill="none" stroke-linecap="round" stroke-width="2" stroke-dasharray="none" stroke-dashoffset="0" transform="matrix(1, 0, 0, 1, 34.9314, 651.7185)" opacity="1"/><path d="M0,0.14 Q1.7066,-2.3245 2.5334,-3.49 T4.1408,-5.7843 5.5112,-7.7908 6.5228,-9.3132 7.2409,-10.4396 7.7965,-11.284 8.2951,-11.9108 8.7648,-12.3507 9.187,-12.5909 9.5492,-12.6246 9.9444,-12.3138 10.4871,-11.3885 11.2759,-9.7007 12.2649,-7.4333 13.2975,-5.0785 14.4197,-2.9391 15.7587,-0.7148 L16.49,0.5 " stroke=" #1d1d1d" fill="none" stroke-linecap="round" stroke-width="2" stroke-dasharray="none" stroke-dashoffset="0" transform="matrix(1, 0, 0, 1, -146.7816, 514.8551)" opacity="1"/><path d="M-0.14,0.07 Q2.0716,-2.2778 4.1827,-4.426 T9.5565,-9.8573 17.3139,-17.6462 27.5788,-27.9282 40.4188,-40.7775 55.8708,-56.2346 73.9548,-74.3215 94.6821,-95.0502 118.9737,-119.3431 L132.24,-132.61 " stroke=" #1d1d1d" fill="none" stroke-linecap="round" stroke-width="2" stroke-dasharray="none" stroke-dashoffset="0" transform="matrix(1, 0, 0, 1, -123.3441, 640.7231)" opacity="1"/><path d="M-0.14,-0.51 Q-3.1628,0.3433 -4.4149,1.0029 T-6.3847,2.3836 -7.1973,3.7277 -6.5245,4.9542 -4.8114,6.0847 -2.9884,7.1288 -1.7637,8.1914 -1.7507,9.2982 -3.0235,10.3634 -5.1642,11.2401 -7.2864,11.7189 -9.3132,11.9524 L-10.42,12.08 " stroke=" #1d1d1d" fill="none" stroke-linecap="round" stroke-width="2" stroke-dasharray="none" stroke-dashoffset="0" transform="matrix(1, 0, 0, 1, 14.2427, 515.2891)" opacity="1"/><path d="M-0.29,-0.8 Q0.6314,2.8128 1.1122,4.6186 T2.0189,7.9371 2.7116,10.5051 3.0581,12.0709 3.0158,12.5652 2.5661,11.7845 1.8281,9.4858 1.0642,6.1631 0.5176,2.7735 0.2827,-0.0966 0.4494,-2.2223 1.0329,-3.3832 1.9098,-3.3613 2.8177,-2.2328 3.411,-0.466 3.5036,1.6155 3.1275,3.7689 2.4297,5.535 1.5115,7.1422 L1.01,8.02 " stroke=" #1d1d1d" fill="none" stroke-linecap="round" stroke-width="2" stroke-dasharray="none" stroke-dashoffset="0" transform="matrix(1, 0, 0, 1, -157.777, 533.5183)" opacity="1"/><path d="M0.3057,1.09 Q0.4713,2.32 0.6707,3.8 T0.505,2.57 0.3057,1.09 Z" stroke=" #1d1d1d" fill="none" stroke-linecap="round" stroke-width="2" stroke-dasharray="none" stroke-dashoffset="0" transform="matrix(1, 0, 0, 1, -148.8071, 542.9222)" opacity="1"/><path d="M0,-0.277 Q3.9503,-0.0313 7.6516,0.0358 T17.0457,0.1396 30.5683,0.1962 48.4435,0.2272 70.7938,0.2441 97.6862,0.2533 129.8263,0.2605 L147.3788,0.2644 " stroke=" #1d1d1d" fill="none" stroke-linecap="round" stroke-width="2" stroke-dasharray="4 4" stroke-dashoffset="0" transform="matrix(1, 0, 0, 1, -139.304, 539.3167)" opacity="1"/><path d="M-0.14,0.07 Q-0.14,1.1185 -0.1082,1.6362 T-0.0909,2.6319 -0.1472,3.6682 -0.2438,4.8264 -0.3283,5.7539 -0.3745,6.9714 -0.3997,10.4801 -0.4134,18.0839 -0.421,30.7678 -0.4251,49.0699 -0.4273,73.2841 -0.429,103.2725 L-0.43,119.65 " stroke=" #1d1d1d" fill="none" stroke-linecap="round" stroke-width="2" stroke-dasharray="4 4" stroke-dashoffset="0" transform="matrix(1, 0, 0, 1, -22.505, 538.1479)" opacity="1"/><path d="M-1.0614,0.3042 Q-1.9827,0.8285 -2.6153,1.673 T-3.5932,3.6369 -3.8981,5.9258 -3.5722,7.9951 -2.5727,9.5178 -1.0101,10.3494 0.7941,10.3111 2.6327,9.4051 4.0975,7.7938 4.7658,5.6974 4.4727,3.436 3.3935,1.4794 1.8533,0.1498 0.2587,-0.3471 -1.4027,-0.3619 -1.225,-0.295 -1.0614,0.3042 Z" stroke=" #1d1d1d" fill="none" stroke-linecap="round" stroke-width="2" stroke-dasharray="none" stroke-dashoffset="0" transform="matrix(1, 0, 0, 1, -26.8331, 661.0817)" opacity="1"/><path d="M-0.29,0.14 Q1.6163,1.8783 2.4318,2.5845 T3.922,3.7421 5.4083,4.7368 L6.22,5.28 " stroke=" #1d1d1d" fill="none" stroke-linecap="round" stroke-width="2" stroke-dasharray="none" stroke-dashoffset="0" transform="matrix(1, 0, 0, 1, -26.8331, 667.4475)" opacity="1"/><path d="M0,0.21 Q0.2632,2.2479 0.4009,3.2628 T0.7043,5.4988 L0.87,6.72 " stroke=" #1d1d1d" fill="none" stroke-linecap="round" stroke-width="2" stroke-dasharray="none" stroke-dashoffset="0" transform="matrix(1, 0, 0, 1, -16.5612, 669.9069)" opacity="1"/><path d="M-1.1249,0.2775 Q-2.1098,1.0649 -2.7135,2.2507 T-3.4835,4.8715 -3.4456,7.551 -2.6034,9.7359 -1.0927,11.1244 0.6514,11.4242 2.2938,10.5713 3.5175,8.7257 3.9226,6.3062 3.4562,3.8684 2.38,1.9129 1.0365,0.7474 -0.2214,0.4059 -1.4817,0.4668 -1.155,-0.005 -1.1249,0.2775 Z" stroke=" #1d1d1d" fill="none" stroke-linecap="round" stroke-width="2" stroke-dasharray="none" stroke-dashoffset="0" transform="matrix(1, 0, 0, 1, 5.3021, 661.5157)" opacity="1"/><path d="M0.4975,0.8798 Q1.2849,1.6196 2.2325,2.5098 T1.445,1.77 0.4975,0.8798 Z" stroke=" #1d1d1d" fill="none" stroke-linecap="round" stroke-width="2" stroke-dasharray="none" stroke-dashoffset="0" transform="matrix(1, 0, 0, 1, 6.7488, 670.9197)" opacity="1"/><path d="M0.29,-0.51 Q1.5382,-0.7052 1.8449,-0.4317 T2.1559,0.4836 1.9648,2.0025 1.4657,3.751 0.898,5.3301 0.4587,6.5532 0.2845,7.4164 0.4844,7.9218 1.052,8.0345 2.0837,7.8985 3.543,7.699 L4.34,7.59 " stroke=" #1d1d1d" fill="none" stroke-linecap="round" stroke-width="2" stroke-dasharray="none" stroke-dashoffset="0" transform="matrix(1, 0, 0, 1, 13.2592, 671.209)" opacity="1"/><path d="M0,-0.08 Q3.041,-2.9213 5.6074,-5.4332 T12.006,-11.7474 21.0558,-20.7512 32.9424,-32.6127 47.7671,-47.4237 65.5853,-65.2343 86.4271,-86.072 111.0583,-110.7 L124.51,-124.15 " stroke=" #1d1d1d" fill="none" stroke-linecap="round" stroke-width="2" stroke-dasharray="none" stroke-dashoffset="0" transform="matrix(1, 0, 0, 1, -100.2188, 649.3049)" opacity="1"/><path d="M-0.29,-0.08 Q-2.5866,0.7733 -3.6086,1.2695 T-5.4837,2.3976 -6.8028,3.6378 -7.26,4.8075 -6.8197,5.907 -5.76,6.9024 -4.3621,7.9044 -3.1062,9.0098 -2.4861,10.3035 -2.4743,11.6658 -3.0578,12.9022 -4.1322,13.9724 -5.3748,14.7202 -6.5459,14.8336 -7.7386,14.4561 L-8.39,14.25 " stroke=" #1d1d1d" fill="none" stroke-linecap="round" stroke-width="2" stroke-dasharray="none" stroke-dashoffset="0" transform="matrix(1, 0, 0, 1, -69.8368, 630.4202)" opacity="1"/><path d="M-0.14,-0.14 Q1.1717,-0.7028 1.5957,-0.6591 T2.1514,-0.0672 2.1258,1.1434 1.5876,2.6918 0.8352,4.3567 0.1611,5.8242 -0.2411,7.0523 -0.1316,7.9522 0.5522,8.5095 1.6155,8.782 2.7545,8.7335 3.9675,8.4596 L4.63,8.31 " stroke=" #1d1d1d" fill="none" stroke-linecap="round" stroke-width="2" stroke-dasharray="none" stroke-dashoffset="0" transform="matrix(1, 0, 0, 1, -69.1134, 644.0198)" opacity="1"/><path d="M0,0.07 Q-0.1952,6.0208 -0.2485,11.2827 T-0.3309,24.5101 -0.3759,43.3723 -0.4004,68.2213 -0.4196,98.9618 L-0.43,115.75 " stroke=" #1d1d1d" fill="none" stroke-linecap="round" stroke-width="2" stroke-dasharray="4 4" stroke-dashoffset="0" transform="matrix(1, 0, 0, 1, 9.3009, 540.6533)" opacity="1"/></svg>