<svg xmlns="http://www.w3.org/2000/svg" direction="ltr" width="266.3771292306923" height="243.31714836645983" viewBox="-415.26675791485724 468.06704884164355 266.3771292306923 243.31714836645983" stroke-linecap="round" stroke-linejoin="round" style="background-color: transparent;" encoding="UTF-8&quot;"><defs><g>
					<pattern id="hash_pattern" width="8" height="8" patternUnits="userSpaceOnUse" strokelinecap="round" stroke="white">
						<line x1="0.6666666666666666" y1="2" x2="2" y2="0.6666666666666666"/>
						<line x1="3.333333333333333" y1="4.666666666666666" x2="4.666666666666666" y2="3.333333333333333"/>
						<line x1="6" y1="7.333333333333333" x2="7.333333333333333" y2="6"/>
					</pattern>
					<mask id="hash_mask">
						<rect x="-100%" y="-100%" width="200%" height="200%" fill="url(#hash_pattern)"/>
					</mask>
				</g><style/></defs><path d="M0.29,-0.87 Q-0.1049,0.242 -0.1469,0.8747 T-0.2118,1.8529 -0.2473,2.9246 -0.2667,5.6595 -0.2773,11.4525 -0.283,21.0651 -0.2862,34.9135 -0.2879,53.2248 -0.2889,76.123 -0.2894,103.676 -0.2898,136.6061 L-0.29,154.59 " stroke=" #1d1d1d" fill="none" stroke-linecap="round" stroke-width="2" stroke-dasharray="none" stroke-dashoffset="0" transform="matrix(1, 0, 0, 1, -362.8287, 507.9818)" opacity="1"/><path d="M0.29,0 Q1.0797,0.7171 1.7127,0.9129 T3.9433,1.2157 8.5,1.381 15.9963,1.4713 26.7673,1.5207 40.9959,1.5476 58.7821,1.5623 80.1804,1.5703 105.2206,1.5747 133.919,1.5771 167.5521,1.579 L185.92,1.58 " stroke=" #1d1d1d" fill="none" stroke-linecap="round" stroke-width="2" stroke-dasharray="none" stroke-dashoffset="0" transform="matrix(1, 0, 0, 1, -370.9306, 654.9726)" opacity="1"/><path d="M1.4538,0.0521 Q1.4754,0.4104 1.3281,0.7378 T0.8981,1.2865 0.2624,1.5726 -0.4334,1.5304 -1.0299,1.1697 -1.3905,0.5731 -1.4325,-0.1227 -1.1463,-0.7584 -0.5975,-1.1882 0.0882,-1.3137 0.7537,-1.1062 1.2465,-0.6133 1.4538,0.0521 Z" fill=" #1d1d1d" stroke-linecap="round" transform="matrix(1, 0, 0, 1, -368.5698, 514.7285)" opacity="1"/><path d="M-0.43,0.21 Q1.4082,1.3946 2.271,2.0131 T3.7683,3.1328 4.8153,4.1051 5.4211,4.9969 5.5545,5.9446 5.2007,7.1521 4.5808,8.4992 3.945,9.7273 3.3686,10.7611 2.7928,11.6547 2.1119,12.583 L1.74,13.09 " stroke=" #1d1d1d" fill="none" stroke-linecap="round" stroke-width="2" stroke-dasharray="none" stroke-dashoffset="0" transform="matrix(1, 0, 0, 1, -187.8696, 650.8685)" opacity="1"/><path d="M0,0.14 Q1.7066,-2.3245 2.5334,-3.49 T4.1408,-5.7843 5.5112,-7.7908 6.5228,-9.3132 7.2409,-10.4396 7.7965,-11.284 8.2951,-11.9108 8.7648,-12.3507 9.187,-12.5909 9.5492,-12.6246 9.9444,-12.3138 10.4871,-11.3885 11.2759,-9.7007 12.2649,-7.4333 13.2975,-5.0785 14.4197,-2.9391 15.7587,-0.7148 L16.49,0.5 " stroke=" #1d1d1d" fill="none" stroke-linecap="round" stroke-width="2" stroke-dasharray="none" stroke-dashoffset="0" transform="matrix(1, 0, 0, 1, -369.5825, 514.0051)" opacity="1"/><path d="M-0.14,0.07 Q2.0716,-2.2778 4.1827,-4.426 T9.5565,-9.8573 17.3139,-17.6462 27.5788,-27.9282 40.4188,-40.7775 55.8708,-56.2346 73.9548,-74.3215 94.6821,-95.0502 118.9737,-119.3431 L132.24,-132.61 " stroke=" #1d1d1d" fill="none" stroke-linecap="round" stroke-width="2" stroke-dasharray="none" stroke-dashoffset="0" transform="matrix(1, 0, 0, 1, -346.145, 639.8732)" opacity="1"/><path d="M-0.14,-0.51 Q-3.1628,0.3433 -4.4149,1.0029 T-6.3847,2.3836 -7.1973,3.7277 -6.5245,4.9542 -4.8114,6.0847 -2.9884,7.1288 -1.7637,8.1914 -1.7507,9.2982 -3.0235,10.3634 -5.1642,11.2401 -7.2864,11.7189 -9.3132,11.9524 L-10.42,12.08 " stroke=" #1d1d1d" fill="none" stroke-linecap="round" stroke-width="2" stroke-dasharray="none" stroke-dashoffset="0" transform="matrix(1, 0, 0, 1, -208.5582, 514.4391)" opacity="1"/><path d="M-0.29,-0.8 Q0.6314,2.8128 1.1122,4.6186 T2.0189,7.9371 2.7116,10.5051 3.0581,12.0709 3.0158,12.5652 2.5661,11.7845 1.8281,9.4858 1.0642,6.1631 0.5176,2.7735 0.2827,-0.0966 0.4494,-2.2223 1.0329,-3.3832 1.9098,-3.3613 2.8177,-2.2328 3.411,-0.466 3.5036,1.6155 3.1275,3.7689 2.4297,5.535 1.5115,7.1422 L1.01,8.02 " stroke=" #1d1d1d" fill="none" stroke-linecap="round" stroke-width="2" stroke-dasharray="none" stroke-dashoffset="0" transform="matrix(1, 0, 0, 1, -380.5779, 532.6683)" opacity="1"/><path d="M0.3057,1.09 Q0.4713,2.32 0.6707,3.8 T0.505,2.57 0.3057,1.09 Z" stroke=" #1d1d1d" fill="none" stroke-linecap="round" stroke-width="2" stroke-dasharray="none" stroke-dashoffset="0" transform="matrix(1, 0, 0, 1, -371.608, 542.0722)" opacity="1"/><path d="M0,0.65 Q0.5265,3.3415 0.8677,4.7323 T1.5904,7.5067 2.2801,9.941 2.6908,11.5654 2.6519,12.0599 2.0723,11.1477 1.1318,8.9747 0.2572,6.3106 -0.2203,3.7051 -0.2202,1.4629 0.2724,-0.1542 1.0338,-1.0714 1.6788,-1.1139 1.9994,-0.3156 1.8794,1.0077 1.3214,2.5519 0.4667,4.3164 L0,5.28 " stroke=" #1d1d1d" fill="none" stroke-linecap="round" stroke-width="2" stroke-dasharray="none" stroke-dashoffset="0" transform="matrix(1, 0, 0, 1, -381.446, 580.99)" opacity="1"/><path d="M0,-0.14 Q1.0485,-0.8344 1.3688,-0.6632 T1.7982,0.0939 1.9012,1.3948 1.794,2.9585 1.6379,4.4683 1.6502,5.6219 1.9179,6.3177 2.459,6.4345 3.1811,6.1715 4.0212,5.7825 L4.48,5.57 " stroke=" #1d1d1d" fill="none" stroke-linecap="round" stroke-width="2" stroke-dasharray="none" stroke-dashoffset="0" transform="matrix(1, 0, 0, 1, -374.0675, 592.2748)" opacity="1"/><path d="M0,-0.22 Q5.7294,-0.0248 10.9968,0.0285 T24.3248,0.1109 43.4527,0.1559 68.7104,0.1804 99.9754,0.1996 L117.05,0.21 " stroke=" #1d1d1d" fill="none" stroke-linecap="round" stroke-width="2" stroke-dasharray="4 4" stroke-dashoffset="0" transform="matrix(1, 0, 0, 1, -362.4934, 538.0213)" opacity="1"/><path d="M0.14,-0.08 Q3.7619,-0.08 10.0817,-0.08 T28.7375,-0.08 55.9167,-0.08 L70.76,-0.08 " stroke=" #1d1d1d" fill="none" stroke-linecap="round" stroke-width="2" stroke-dasharray="4 4" stroke-dashoffset="0" transform="matrix(1, 0, 0, 1, -364.6636, 587.2111)" opacity="1"/><path d="M-0.14,0.07 Q-0.14,1.1185 -0.1082,1.6362 T-0.0909,2.6319 -0.1472,3.6682 -0.2438,4.8264 -0.3283,5.7539 -0.3745,6.9714 -0.3997,10.4801 -0.4134,18.0839 -0.421,30.7678 -0.4251,49.0699 -0.4273,73.2841 -0.429,103.2725 L-0.43,119.65 " stroke=" #1d1d1d" fill="none" stroke-linecap="round" stroke-width="2" stroke-dasharray="4 4" stroke-dashoffset="0" transform="matrix(1, 0, 0, 1, -245.3059, 537.2979)" opacity="1"/><path d="M0.14,0.07 Q0.14,3.5038 0.14,9.5922 T0.14,27.5901 0.14,53.8298 L0.14,68.16 " stroke=" #1d1d1d" fill="none" stroke-linecap="round" stroke-width="2" stroke-dasharray="4 4" stroke-dashoffset="0" transform="matrix(1, 0, 0, 1, -296.0872, 588.5132)" opacity="1"/><path d="M-1.2248,0.4659 Q-2.3095,1.0718 -3.1652,1.8952 T-4.5857,3.8581 -5.2957,6.3076 -5.2886,8.7937 -4.5608,10.9411 -3.1126,12.4429 -1.2074,12.8682 0.7839,12.0816 2.3321,10.2404 2.9484,7.6917 2.5293,5.215 1.3473,3.5334 -0.1515,2.8465 -1.4625,2.9003 -2.6704,3.2235 -1.735,1.63 -1.2248,0.4659 Z" stroke=" #1d1d1d" fill="none" stroke-linecap="round" stroke-width="2" stroke-dasharray="none" stroke-dashoffset="0" transform="matrix(1, 0, 0, 1, -297.0878, 660.3764)" opacity="1"/><path d="M-0.43,0.21 Q1.7985,1.3265 3.1393,1.9983 L4.48,2.67 " stroke=" #1d1d1d" fill="none" stroke-linecap="round" stroke-width="2" stroke-dasharray="none" stroke-dashoffset="0" transform="matrix(1, 0, 0, 1, -297.0878, 670.6484)" opacity="1"/><path d="M-0.29,-0.22 Q0.8901,-0.9417 1.3122,-0.9753 T1.9648,-0.6665 2.1895,0.1579 2.0173,1.2981 1.5624,2.6447 1.0507,3.9043 0.7054,4.8873 0.6485,5.5239 1.0123,5.8058 1.7692,5.8281 2.8384,5.6769 4.1848,5.4202 L4.92,5.28 " stroke=" #1d1d1d" fill="none" stroke-linecap="round" stroke-width="2" stroke-dasharray="none" stroke-dashoffset="0" transform="matrix(1, 0, 0, 1, -289.1306, 672.0952)" opacity="1"/><path d="M-1.0614,0.3042 Q-1.9827,0.8285 -2.6153,1.673 T-3.5932,3.6369 -3.8981,5.9258 -3.5722,7.9951 -2.5727,9.5178 -1.0101,10.3494 0.7941,10.3111 2.6327,9.4051 4.0975,7.7938 4.7658,5.6974 4.4727,3.436 3.3935,1.4794 1.8533,0.1498 0.2587,-0.3471 -1.4027,-0.3619 -1.225,-0.295 -1.0614,0.3042 Z" stroke=" #1d1d1d" fill="none" stroke-linecap="round" stroke-width="2" stroke-dasharray="none" stroke-dashoffset="0" transform="matrix(1, 0, 0, 1, -249.6341, 660.2317)" opacity="1"/><path d="M-0.29,0.14 Q1.6163,1.8783 2.4318,2.5845 T3.922,3.7421 5.4083,4.7368 L6.22,5.28 " stroke=" #1d1d1d" fill="none" stroke-linecap="round" stroke-width="2" stroke-dasharray="none" stroke-dashoffset="0" transform="matrix(1, 0, 0, 1, -249.6341, 666.5975)" opacity="1"/><path d="M0,0.21 Q0.2632,2.2479 0.4009,3.2628 T0.7043,5.4988 L0.87,6.72 " stroke=" #1d1d1d" fill="none" stroke-linecap="round" stroke-width="2" stroke-dasharray="none" stroke-dashoffset="0" transform="matrix(1, 0, 0, 1, -239.3621, 669.057)" opacity="1"/></svg>